<svg width="183" height="22" viewBox="0 0 183 22" fill="none" xmlns="http://www.w3.org/2000/svg">
<g opacity="0.4">
<path d="M92.2714 1.18729C92.4294 1.49024 92.5126 1.82437 92.5144 2.1635V18.759C92.5039 19.3461 92.2574 19.9065 91.8268 20.3217C91.3962 20.737 90.8151 20.9747 90.2062 20.9847H83.3423V22H91.259C91.8679 21.9899 92.449 21.7522 92.8796 21.337C93.3103 20.9217 93.5568 20.3614 93.5672 19.7742V3.17875C93.5655 2.76326 93.4432 2.35653 93.2142 2.00458C92.9852 1.65263 92.6586 1.36952 92.2714 1.18729Z" fill="#DBB590"/>
<path d="M102.927 0.953003V20.9652H100.239V21.9853H103.979V0.953003H102.927Z" fill="#DBB590"/>
<path d="M119.57 0.953003V20.9652H116.583L116.882 21.9853H120.628V0.953003H119.57Z" fill="#DBB590"/>
<path d="M113.086 11.8035V20.975H110.398V21.9951H114.139V15.313L113.086 11.8035Z" fill="#DBB590"/>
<path d="M129.42 13.2678H132.513V12.2282H128.367C128.016 12.2265 127.669 12.1463 127.355 11.9939C127.539 12.3733 127.83 12.6945 128.196 12.9201C128.562 13.1457 128.986 13.2663 129.42 13.2678Z" fill="#DBB590"/>
<path d="M130.853 14.6003L129.795 14.8346V17.3386H130.853V14.6003Z" fill="#DBB590"/>
<path d="M136.041 1.18729C136.199 1.49024 136.282 1.82437 136.284 2.1635V6.43439L133.566 7.03964V8.28918L137.337 7.44476V3.17387C137.334 2.75921 137.212 2.35351 136.983 2.00251C136.754 1.6515 136.428 1.36915 136.041 1.18729Z" fill="#DBB590"/>
<path d="M42.6399 1.18729C42.798 1.49024 42.8811 1.82437 42.8829 2.16349V18.759C42.8725 19.3461 42.6259 19.9065 42.1953 20.3217C41.7647 20.737 41.1836 20.9747 40.5747 20.9847H34.9763C34.6246 20.983 34.2781 20.9028 33.9639 20.7504C34.1525 21.1231 34.4453 21.4375 34.8093 21.6583C35.1733 21.8791 35.5941 21.9974 36.0241 22H41.6326C42.2415 21.9899 42.8226 21.7522 43.2532 21.337C43.6839 20.9217 43.9304 20.3614 43.9408 19.7742V3.17875C43.9381 2.76286 43.8148 2.356 43.5849 2.00411C43.355 1.65221 43.0277 1.36929 42.6399 1.18729Z" fill="#DBB590"/>
<path d="M53.1078 8.62109H54.1607V4.56008H55.821V3.53994H53.1078V8.62109Z" fill="#DBB590"/>
<path d="M59.3086 13.014C59.7005 12.8388 60.0322 12.5591 60.2645 12.208C60.4968 11.8568 60.6201 11.4488 60.6196 11.0323V3.17386C60.6199 2.75607 60.498 2.34667 60.2679 1.99267C60.0378 1.63868 59.7088 1.35445 59.3187 1.17265C59.4744 1.47642 59.5575 1.81002 59.5617 2.14885V10.0317C59.5646 10.4481 59.4436 10.8566 59.213 11.2087C58.9824 11.5609 58.652 11.8418 58.2608 12.0183L59.8198 20.975H56.9447L57.1219 21.9902H60.8626L59.3086 13.014Z" fill="#DBB590"/>
<path d="M54.5403 12.2086H53.1078V20.975H50.42V21.9951H54.1607V13.2678H54.7175L54.5403 12.2086Z" fill="#DBB590"/>
<path d="M69.3159 17.3191H70.3738V4.56008H72.029V3.53994H69.3159V17.3191Z" fill="#DBB590"/>
<path d="M19.6895 8.62109H20.7423V4.56008H22.3976V3.53994H19.6895V8.62109Z" fill="#DBB590"/>
<path d="M27.2266 9.363V3.17386C27.2239 2.75921 27.1012 2.35351 26.8722 2.0025C26.6433 1.6515 26.3172 1.36915 25.9307 1.18729C26.0888 1.49024 26.172 1.82437 26.1737 2.16349V8.35263C26.179 8.67873 26.1085 9.00183 25.9675 9.29827C25.8265 9.59471 25.6185 9.85698 25.3587 10.0659C25.6165 10.2967 25.8237 10.575 25.968 10.8844C26.1123 11.1937 26.1909 11.5278 26.199 11.867V18.7492C26.1897 19.3452 25.9366 19.9135 25.4948 20.3303C25.053 20.7472 24.4583 20.9789 23.8402 20.975H17.0016V21.9902H24.9184C25.5273 21.9802 26.1084 21.7424 26.539 21.3272C26.9696 20.9119 27.2162 20.3516 27.2266 19.7645V12.8822C27.2168 12.542 27.136 12.2071 26.989 11.8977C26.842 11.5882 26.6319 11.3105 26.3711 11.0811C26.6395 10.876 26.856 10.6148 27.0042 10.3171C27.1524 10.0195 27.2284 9.69319 27.2266 9.363Z" fill="#DBB590"/>
<path d="M75.8052 2.16349C75.804 1.8243 75.7208 1.49005 75.5622 1.18729C75.9468 1.37178 76.2707 1.65569 76.4977 2.00733C76.7247 2.35898 76.846 2.76453 76.8479 3.17875V19.7742C76.8375 20.3614 76.591 20.9217 76.1603 21.337C75.7297 21.7522 75.1486 21.9899 74.5397 22H68.9261C68.4961 21.9974 68.0754 21.8791 67.7113 21.6583C67.3473 21.4375 67.0545 21.1231 66.8659 20.7504C67.1801 20.9028 67.5266 20.983 67.8783 20.9847H73.497C74.1059 20.9747 74.6869 20.737 75.1176 20.3217C75.5482 19.9065 75.7947 19.3461 75.8052 18.759V2.16349Z" fill="#DBB590"/>
<path d="M87.083 17.3386H86.025V3.53994H88.7382V4.56008H87.083V17.3386Z" fill="#DBB590"/>
<path d="M136.284 10.8517C136.282 10.5126 136.199 10.1785 136.041 9.87551C136.425 10.0592 136.749 10.3422 136.976 10.693C137.203 11.0438 137.325 11.4486 137.327 11.8621V19.7742C137.317 20.3614 137.07 20.9217 136.639 21.337C136.209 21.7522 135.628 21.9899 135.019 22H129.41C128.98 21.9974 128.559 21.8791 128.195 21.6583C127.831 21.4375 127.539 21.1231 127.35 20.7504C127.664 20.9028 128.011 20.983 128.362 20.9847H133.976C134.585 20.9747 135.166 20.737 135.597 20.3217C136.027 19.9065 136.274 19.3461 136.284 18.759V10.8517Z" fill="#DBB590"/>
<path d="M129.795 8.62109V3.53018L132.508 3.53994V4.56008H130.853V8.62109H129.795Z" fill="#DBB590"/>
<path d="M146.499 12.2282H146.843L147.547 14.4149V21.9951H143.806V20.975H146.499V12.2282Z" fill="#DBB590"/>
<path d="M153.12 0.953003H154.517L151.024 11.4423L154.517 21.9951H150.746L150.716 21.8731L150.422 20.975H153.459L149.966 10.4271L153.12 0.953003Z" fill="#DBB590"/>
<path d="M163.304 20.9652V0.953003H164.357V21.9853H160.622V20.9652H163.304Z" fill="#DBB590"/>
<path d="M179.052 13.2239L181.947 10.4319L183 11.4521L180.11 14.244L179.052 13.2239Z" fill="#DBB590"/>
<path d="M0.87455 13.2239L3.76487 10.4368L4.8228 11.4521L1.94766 14.244L0.87455 13.2239Z" fill="#DBB590"/>
<path d="M20.7423 17.3386H19.6895V12.2282H22.3976V13.2678H20.7423V17.3386Z" fill="#DBB590"/>
<path d="M37.4465 17.3386H36.3936L36.3987 3.53994H39.1017V4.56008H37.4465V17.3386Z" fill="#DBB590"/>
</g>
</svg>
